<svg width="283" height="283" viewBox="0 0 283 283" fill="none" xmlns="http://www.w3.org/2000/svg">
<circle cx="141.5" cy="141.5" r="141.5" fill="#EFEBE9" fill-opacity="0.4"/>
<path d="M202.896 96.1393C199.378 92.6078 195.2 89.8064 190.602 87.8951C186.004 85.9838 181.076 85 176.098 85C171.121 85 166.193 85.9838 161.595 87.8951C156.997 89.8064 152.819 92.6078 149.3 96.1393L141.998 103.465L134.696 96.1393C127.589 89.0093 117.949 85.0037 107.898 85.0037C97.8468 85.0037 88.2073 89.0093 81.1001 96.1393C73.9928 103.269 70 112.94 70 123.023C70 133.106 73.9928 142.777 81.1001 149.907L88.4023 157.232L141.998 211L195.594 157.232L202.896 149.907C206.416 146.377 209.209 142.186 211.114 137.573C213.019 132.96 214 128.016 214 123.023C214 118.03 213.019 113.086 211.114 108.473C209.209 103.86 206.416 99.6691 202.896 96.1393Z" fill="#BDBFC1"/>
<circle cx="187.61" cy="157.912" r="39.5594" fill="#F1592A"/>
<g clip-path="url(#clip0_1147_6618)">
<path d="M198.104 147.835L177.535 168.403" stroke="white" stroke-width="4" stroke-linecap="square" stroke-linejoin="round"/>
<path d="M177.535 147.835L198.104 168.403" stroke="white" stroke-width="4" stroke-linecap="square" stroke-linejoin="round"/>
</g>
<defs>
<clipPath id="clip0_1147_6618">
<rect width="24.6822" height="24.6822" fill="white" transform="translate(175.477 145.778)"/>
</clipPath>
</defs>
</svg>
